PathFileType	4	(X/Y/Z)	6_coords_data.trc
DataRate	CameraRate	NumFrames	NumMarkers	Units	OrigDataRate	OrigDataStartFrame	OrigNumFrames
30.0	30.0	5	21	m	30.0	20	68
Frame#	Time	THUMB_TIP	THUMB_IP	THUMB_MCP	THUMB_CMC	INDEX_TIP	INDEX_DIP	INDEX_PIP	INDEX_MCP	MIDDLE_TIP	MIDDLE_DIP	MIDDLE_PIP	MIDDLE_MCP	RING_TIP	RING_DIP	RING_PIP	RING_MCP	PINKY_TIP	PINKY_DIP	PINKY_PIP	PINKY_MCP	WRIST
X1	Y1	Z1	X2	Y2	Z2	X3	Y3	Z3	X4	Y4	Z4	X5	Y5	Z5	X6	Y6	Z6	X7	Y7	Z7	X8	Y8	Z8	X9	Y9	Z9	X10	Y10	Z10	X11	Y11	Z11	X12	Y12	Z12	X13	Y13	Z13	X14	Y14	Z14	X15	Y15	Z15	X16	Y16	Z16	X17	Y17	Z17	X18	Y18	Z18	X19	Y19	Z19	X20	Y20	Z20	X21	Y21	Z21
19	0.6333333333333333	0.011767499923706055	-0.1876269989013672	1.114989990234375	0.014908699989318848	-0.16088099670410155	1.110239990234375	-0.0008679779767990112	-0.13308599853515626	1.1065699462890626	-0.008463239669799805	-0.09291829681396484	1.10393994140625	0.0434547004699707	-0.1557570037841797	0.9776339721679688	0.03785599899291992	-0.14457200622558594	0.9968079833984375	0.03229359817504883	-0.13193699645996093	1.0175900268554687	0.01861989974975586	-0.10863200378417968	1.0484200439453124	0.035138900756835935	-0.0949395980834961	0.9416630249023438	0.03402000045776367	-0.09395960235595703	0.9681890258789062	0.029207599639892577	-0.09153959655761719	0.9993820190429688	0.01650790023803711	-0.08539350128173828	1.0394200439453125	0.04227149963378906	-0.042382499694824216	0.955198974609375	0.03995800018310547	-0.04829690170288086	0.9793159790039062	0.03558739852905273	-0.05460919952392578	1.0060599975585938	0.022638900756835938	-0.06232920074462891	1.042699951171875	0.04676440048217773	0.009179329872131348	1.0151099853515626	0.04290140151977539	-0.006178899765014649	1.02797998046875	0.03678469848632813	-0.02050779914855957	1.038780029296875	0.021508899688720703	-0.04236790084838867	1.052260009765625	-0.029062400817871092	-0.05957559967041016	1.1091800537109375
20	0.6666666666666666	0.011943400382995606	-0.18755999755859376	1.1151199951171875	0.014989899635314942	-0.1609250030517578	1.110199951171875	-0.001103559970855713	-0.13304200744628905	1.10643994140625	-0.008462309837341309	-0.09305539703369141	1.104010009765625	0.04328900146484375	-0.15579899597167968	0.9774630126953125	0.03775279998779297	-0.14461300659179688	0.9966749877929687	0.032238601684570316	-0.13201400756835938	1.017469970703125	0.018472299575805665	-0.10864900207519532	1.04843994140625	0.03514569854736328	-0.09498500061035156	0.9416160278320312	0.03403519821166992	-0.09402749633789062	0.9681229858398438	0.029264799118041994	-0.09163490295410157	0.9992020263671875	0.016428600311279296	-0.08546430206298829	1.0393499755859374	0.042267799377441406	-0.04260860061645508	0.9550850219726562	0.0399452018737793	-0.04849969863891602	0.9791909790039063	0.035553699493408204	-0.05476860046386719	1.00597998046875	0.022546600341796875	-0.062406600952148436	1.0425799560546876	0.046690399169921876	0.009077739715576173	1.0148699951171876	0.042845199584960934	-0.006259520053863526	1.027739990234375	0.036741001129150394	-0.020555599212646485	1.03856005859375	0.021472299575805664	-0.04245479965209961	1.0521500244140625	-0.029012100219726562	-0.05967430114746094	1.108969970703125
21	0.7	0.011696999549865722	-0.18785699462890626	1.115219970703125	0.014769900321960449	-0.16115699768066405	1.110219970703125	-0.0012424199581146241	-0.13322000122070313	1.1063599853515624	-0.008504480361938476	-0.09314669799804688	1.1039200439453125	0.04274069976806641	-0.15623699951171874	0.9774429931640625	0.037289600372314456	-0.14502000427246095	0.9966430053710937	0.03176320075988769	-0.13241700744628906	1.0174299926757813	0.018260900497436523	-0.10896700286865234	1.0483900146484375	0.03485129928588867	-0.09549410247802734	0.941552001953125	0.03370589828491211	-0.09447579956054687	0.9681119995117188	0.02891860008239746	-0.09201110076904297	0.9992650146484375	0.01619059944152832	-0.08581120300292969	1.0393199462890625	0.04212020111083985	-0.043303699493408204	0.954906005859375	0.03983769989013672	-0.04916500091552734	0.9790859985351562	0.035415000915527343	-0.05535150146484375	1.00597998046875	0.02240340042114258	-0.06280739974975585	1.04252001953125	0.04667359924316406	0.008563380241394043	1.0145599975585937	0.042801799774169924	-0.006717000007629394	1.02747998046875	0.03667259979248047	-0.021006500244140625	1.0383699951171874	0.021343799591064454	-0.042840801239013675	1.051969970703125	-0.028968700408935545	-0.0598129997253418	1.1090400390625
22	0.7333333333333333	0.011883999824523926	-0.188	1.115280029296875	0.01488070011138916	-0.16136399841308594	1.110489990234375	-0.001226029992103576	-0.13342599487304688	1.10643994140625	-0.00837777042388916	-0.09358180236816406	1.1040999755859375	0.04274489974975586	-0.15653700256347655	0.9774299926757812	0.03727700042724609	-0.14528599548339843	0.9966510009765625	0.03173080062866211	-0.13269200134277342	1.0174400024414063	0.0181387996673584	-0.10923300170898438	1.0484599609375	0.03477349853515625	-0.09582510375976562	0.9415189819335937	0.03363349914550781	-0.09481500244140625	0.9681209716796875	0.028984100341796874	-0.09242179870605469	0.999198974609375	0.01598960018157959	-0.08608740234375	1.0393800048828126	0.04193939971923828	-0.04379230117797851	0.9548099975585937	0.039645198822021485	-0.04962020111083985	0.9789669799804688	0.035270099639892576	-0.05576290130615234	1.0059199829101562	0.02240060043334961	-0.06310689926147461	1.04243994140625	0.046472801208496096	0.008275670051574707	1.0143300170898437	0.04261980056762695	-0.006976329803466797	1.027260009765625	0.03655609893798828	-0.021253400802612305	1.0381500244140625	0.02131290054321289	-0.04311539840698242	1.0518399658203126	-0.028904499053955077	-0.0600791015625	1.10893994140625
23	0.7666666666666667	0.012648599624633789	-0.187947998046875	1.11547998046875	0.015529999732971192	-0.16126300048828124	1.110449951171875	-0.0006428779959678651	-0.13360499572753906	1.106739990234375	-0.008275309562683105	-0.09350959777832031	1.104	0.043190898895263674	-0.15662899780273437	0.97739501953125	0.03767599868774414	-0.1453800048828125	0.9966290283203125	0.03209650039672852	-0.13279200744628905	1.0173699951171875	0.018357000350952148	-0.1093550033569336	1.0483399658203125	0.03521649932861328	-0.0958821029663086	0.9414639892578125	0.03399409866333008	-0.09491110229492188	0.9679730224609375	0.02909469985961914	-0.09243160247802734	0.9991729736328125	0.01630500030517578	-0.08626309967041015	1.039219970703125	0.04216239929199219	-0.0439833984375	0.954708984375	0.03989490127563477	-0.049753700256347656	0.9788839721679687	0.0354739990234375	-0.05579999923706055	1.00572998046875	0.022411899566650392	-0.06316410064697266	1.0423199462890624	0.04660960006713867	0.008188559532165527	1.01427001953125	0.04276039886474609	-0.007093550205230713	1.0271800537109375	0.03664820098876953	-0.02138330078125	1.0380899658203124	0.021477399826049806	-0.043247398376464845	1.051719970703125	-0.028853200912475587	-0.060232601165771484	1.1088599853515626
